<svg xmlns="http://www.w3.org/2000/svg" height="512" viewBox="0 0 128 128" width="512"><g id="icon"><path d="m50.063 39.222v-3.573a2.414 2.414 0 0 1 2.41-2.41h23.054a2.414 2.414 0 0 1 2.41 2.41v3.574h4.031v-3.574a6.449 6.449 0 0 0 -6.442-6.442h-23.052a6.449 6.449 0 0 0 -6.442 6.442v3.574z" fill="#dbd8dd"/><g fill="#62667c"><path d="m48.047 37.335a4.508 4.508 0 0 0 -4.508 4.508v1.145h9.016v-1.145a4.508 4.508 0 0 0 -4.508-4.508z"/><path d="m79.953 37.335a4.508 4.508 0 0 0 -4.508 4.508v1.145h9.016v-1.145a4.508 4.508 0 0 0 -4.508-4.508z"/><path d="m24.349 61.143v30.712a6.938 6.938 0 0 0 6.938 6.938h65.426a6.938 6.938 0 0 0 6.938-6.938v-30.712z"/></g><path d="m100.263 41.217h-72.526a4.736 4.736 0 0 0 -4.7 5.32l-.037 18.963c.144 1.16 3.225 2.095 4.38 2.278a232.238 232.238 0 0 0 73.24 0c1.155-.183 4.236-1.118 4.38-2.278l-.037-18.965a4.736 4.736 0 0 0 -4.7-5.318z" fill="#575b6d"/><path d="m60.047 66.446v5.627a4.108 4.108 0 0 0 3.545 4.158 3.954 3.954 0 0 0 4.361-3.931v-5.854a1.326 1.326 0 0 0 -1.326-1.326h-5.254a1.326 1.326 0 0 0 -1.326 1.326z" fill="#f6c863"/><circle cx="64.026" cy="72.709" fill="#eeefee" r="1.705"/></g></svg>